<?xml version="1.0" encoding="UTF-8" standalone="no"?>
<!-- Created with Inkscape (http://www.inkscape.org/) -->

<svg
   xmlns:dc="http://purl.org/dc/elements/1.1/"
   xmlns:cc="http://creativecommons.org/ns#"
   xmlns:rdf="http://www.w3.org/1999/02/22-rdf-syntax-ns#"
   xmlns:svg="http://www.w3.org/2000/svg"
   xmlns="http://www.w3.org/2000/svg"
   xmlns:xlink="http://www.w3.org/1999/xlink"
   xmlns:sodipodi="http://sodipodi.sourceforge.net/DTD/sodipodi-0.dtd"
   xmlns:inkscape="http://www.inkscape.org/namespaces/inkscape"
   width="1222.1833"
   height="554.18445"
   id="svg2"
   version="1.1"
   inkscape:version="0.91 r13725"
   sodipodi:docname="salzpug-logo.svg"
   inkscape:export-filename="/home/igor/filez/projexx/salzpug/logo-1024.png"
   inkscape:export-xdpi="75.410004"
   inkscape:export-ydpi="75.410004">
  <defs
     id="defs4">
    <linearGradient
       inkscape:collect="always"
       xlink:href="#linearGradient4671"
       id="linearGradient1475"
       gradientUnits="userSpaceOnUse"
       gradientTransform="matrix(0.562541,0,0,0.567972,127.99963,125.89385)"
       x1="150.96111"
       y1="192.35176"
       x2="112.03144"
       y2="137.27299" />
    <linearGradient
       id="linearGradient4671">
      <stop
         style="stop-color:#ffd43b;stop-opacity:1;"
         offset="0"
         id="stop4673" />
      <stop
         style="stop-color:#ffe873;stop-opacity:1"
         offset="1"
         id="stop4675" />
    </linearGradient>
    <linearGradient
       inkscape:collect="always"
       xlink:href="#linearGradient4689"
       id="linearGradient1478"
       gradientUnits="userSpaceOnUse"
       gradientTransform="matrix(0.562541,0,0,0.567972,-9.399749,-5.305317)"
       x1="26.648937"
       y1="20.603781"
       x2="135.66525"
       y2="114.39767" />
    <linearGradient
       id="linearGradient4689">
      <stop
         style="stop-color:#5a9fd4;stop-opacity:1;"
         offset="0"
         id="stop4691" />
      <stop
         style="stop-color:#306998;stop-opacity:1;"
         offset="1"
         id="stop4693" />
    </linearGradient>
    <linearGradient
       y2="114.39767"
       x2="135.66525"
       y1="20.603781"
       x1="26.648937"
       gradientTransform="matrix(0.562541,0,0,0.567972,127.99963,125.89385)"
       gradientUnits="userSpaceOnUse"
       id="linearGradient3194"
       xlink:href="#linearGradient4689"
       inkscape:collect="always" />
    <linearGradient
       inkscape:collect="always"
       xlink:href="#linearGradient4689"
       id="linearGradient3227"
       gradientUnits="userSpaceOnUse"
       gradientTransform="matrix(0.562541,0,0,0.567972,127.99963,125.89385)"
       x1="26.648937"
       y1="20.603781"
       x2="135.66525"
       y2="114.39767" />
    <linearGradient
       inkscape:collect="always"
       xlink:href="#linearGradient4671"
       id="linearGradient3229"
       gradientUnits="userSpaceOnUse"
       gradientTransform="matrix(0.562541,0,0,0.567972,127.99963,125.89385)"
       x1="150.96111"
       y1="192.35176"
       x2="112.03144"
       y2="137.27299" />
  </defs>
  <sodipodi:namedview
     id="base"
     pagecolor="#ffffff"
     bordercolor="#666666"
     borderopacity="1.0"
     inkscape:pageopacity="0.0"
     inkscape:pageshadow="2"
     inkscape:zoom="0.7"
     inkscape:cx="576.40719"
     inkscape:cy="286.42975"
     inkscape:document-units="px"
     inkscape:current-layer="layer1"
     showgrid="false"
     inkscape:window-width="1676"
     inkscape:window-height="1027"
     inkscape:window-x="0"
     inkscape:window-y="329"
     inkscape:window-maximized="0"
     fit-margin-top="0"
     fit-margin-left="0"
     fit-margin-right="0"
     fit-margin-bottom="0"
     inkscape:showpageshadow="false" />
  <metadata
     id="metadata7">
    <rdf:RDF>
      <cc:Work
         rdf:about="">
        <dc:format>image/svg+xml</dc:format>
        <dc:type
           rdf:resource="http://purl.org/dc/dcmitype/StillImage" />
        <dc:title></dc:title>
      </cc:Work>
    </rdf:RDF>
  </metadata>
  <g
     inkscape:label="Layer 1"
     inkscape:groupmode="layer"
     id="layer1"
     transform="translate(-164.71428,-192.84511)">
    <path
       style="fill:#99979d;fill-opacity:1"
       d="m 972.69206,555.19257 c -0.45718,-0.45719 -0.83124,-27.23543 -0.83124,-59.50722 0,-61.04934 -0.0426,-61.57156 -5.02485,-61.57156 -2.55958,0 -4.31786,-3.02014 -5.7848,-9.93635 -1.59063,-7.49944 -3.73277,-15.64984 -4.84027,-18.41633 -0.53131,-1.32715 -1.66669,-4.74764 -2.52309,-7.60109 -0.8564,-2.85345 -1.96801,-5.44206 -2.47027,-5.75247 -0.50224,-0.31041 -2.36401,4.19593 -4.13726,10.01408 -1.77324,5.81815 -3.67798,11.66431 -4.23273,12.99145 -0.55474,1.32715 -1.3522,4.31323 -1.77212,6.63574 -1.20045,6.63959 -4.0925,12.06497 -6.43133,12.06497 -4.81155,0 -5.01068,1.56794 -5.01068,39.45245 0,39.70797 0.0937,39.22848 -6.5506,33.51437 l -3.53438,-3.03956 -23.57805,0.32641 -23.57805,0.32641 -5.68947,8.44548 c -3.12919,4.64501 -5.72328,8.88889 -5.76462,9.43085 -0.0414,0.54195 -1.43247,2.76489 -3.09141,4.93986 -1.65893,2.17498 -3.03576,4.44619 -3.05962,5.04712 -0.0239,0.60094 -1.24545,2.546 -2.71462,4.32235 -2.09896,2.5378 -4.6098,3.60567 -11.71996,4.98456 -4.9768,0.96515 -9.95721,2.13276 -11.06757,2.5947 -3.05931,1.27273 -4.81395,-3.21069 -4.41409,-11.27879 0.2487,-5.01838 -0.16543,-7.47481 -1.46537,-8.69199 -0.99662,-0.93318 -5.72403,-5.12117 -10.50534,-9.30667 l -8.6933,-7.60998 -54.94545,0.10231 c -43.57432,0.0812 -55.05518,-0.21661 -55.47557,-1.43875 -0.29155,-0.84758 -0.87691,-4.79861 -1.30079,-8.78005 -1.87391,-17.60125 -1.87581,-17.60865 -4.85522,-18.96617 -1.57337,-0.71688 -3.98315,-3.45693 -5.35507,-6.08901 -2.21158,-4.24301 -2.47475,-6.74116 -2.32119,-22.03317 0.0953,-9.48615 -0.28762,-17.99307 -0.85085,-18.90425 -0.56323,-0.91118 -3.57906,-3.71927 -6.70186,-6.2402 l -5.67781,-4.58349 -4.55361,3.41973 c -10.81546,8.12234 -10.03046,6.18528 -10.03046,24.75102 0,10.88939 -0.44149,16.67338 -1.27268,16.67338 -0.69999,0 -3.60003,1.06022 -6.44457,2.35606 -4.69908,2.14068 -5.52857,3.216 -9.0741,11.76335 -4.4321,10.68465 -6.10543,12.42353 -11.9552,12.42353 -4.1805,0 -9.84838,4.3651 -9.87181,7.60276 -0.0144,1.98119 -8.22324,10.49469 -10.11921,10.49469 -1.1107,0 -1.84881,-4.64091 -2.68304,-16.86976 -1.14597,-16.79866 -1.16752,-16.88699 -5.11175,-20.95641 -3.88007,-4.00321 -3.98308,-4.39155 -5.04624,-19.02352 -0.59694,-8.21528 -1.10547,-15.75127 -1.13009,-16.74663 -0.0246,-0.99536 -3.09512,-5.02829 -6.82334,-8.96209 l -6.77857,-7.15233 -7.08834,7.33385 -7.08834,7.33385 -0.0464,16.70944 -0.0465,16.70945 -3.87464,2.43383 -3.87464,2.43383 -0.91823,16.87013 c -1.23889,22.76044 -0.97707,22.29936 -12.66221,22.29936 -6.37241,0 -10.23567,-0.57875 -11.9694,-1.79311 -2.11479,-1.48124 -9.45323,-1.84845 -42.19423,-2.11137 l -39.63422,-0.31826 -0.75213,-19.9072 c -0.42538,-11.25914 -1.42574,-21.74165 -2.30272,-24.12995 -1.73885,-4.73538 -7.60631,-13.75997 -11.46681,-17.63682 -4.91463,-4.93542 -14.49137,-10.90736 -20.16513,-12.57474 -3.15197,-0.92628 -5.79037,-2.24428 -5.86313,-2.92888 -0.0727,-0.68459 -0.28188,-3.03334 -0.46475,-5.21944 -0.34079,-4.07372 -3.0684,-7.98748 -7.05282,-10.11988 -3.0087,-1.61022 -9.23402,4.16583 -9.25758,8.58946 -0.0256,4.80247 -1.3222,8.52138 -2.97103,8.52138 -3.80488,0 -16.87858,8.25783 -22.73885,14.3627 -11.57318,12.05622 -14.28148,19.87634 -14.01602,40.47069 0.10593,8.22005 -0.11655,15.44585 -0.49443,16.0573 -0.3779,0.61147 -14.62257,1.47993 -31.65481,1.92991 l -30.9677,0.81818 -6.18058,3.39232 c -3.39933,1.86577 -8.47723,4.8423 -11.28422,6.6145 -2.807,1.77221 -5.57321,3.22219 -6.14712,3.22219 -0.57392,0 -2.02617,1.08585 -3.22721,2.41299 -1.20106,1.32715 -2.6533,2.413 -3.22721,2.413 -0.57392,0 -3.27131,1.40636 -5.9942,3.12525 l -4.95072,3.12525 0.55243,9.54297 0.55243,9.54297 -3.72158,0.0187 c -15.0516,0.0755 -63.16733,1.32468 -69.77731,1.81143 l -8.14386,0.5997 0,-12.44652 0,-12.44653 5.85429,-6.07372 c 4.839,-5.02039 5.96302,-7.03839 6.48125,-11.63617 0.65098,-5.77536 3.90529,-9.56988 17.40656,-20.29595 2.55369,-2.02877 7.7085,-6.56612 11.45514,-10.08298 l 6.81208,-6.39431 0.74116,-13.10458 c 0.40765,-7.20752 0.9929,-16.17157 1.30056,-19.92012 0.65441,-7.97343 -0.94929,-10.18347 -6.57336,-9.05865 -1.96335,0.39267 -3.87586,0.21859 -4.25003,-0.38684 -0.37419,-0.60543 1.70004,-5.60969 4.60937,-11.12057 2.90934,-5.51089 8.16875,-15.44904 11.68758,-22.08477 3.51883,-6.63574 7.12177,-13.47333 8.00654,-15.19465 l 1.60867,-3.12968 23.83383,-0.83261 c 13.10861,-0.45794 34.42085,-1.11249 47.36053,-1.45455 12.93968,-0.34206 24.69879,-1.20317 26.13136,-1.9136 3.22041,-1.59701 4.50353,-11.10461 2.0032,-14.84316 -0.8754,-1.30889 -1.5728,-3.48058 -1.54978,-4.82598 0.045,-2.6306 11.35095,-18.73387 13.15288,-18.73387 0.59754,0 2.35229,2.02829 3.89946,4.50731 8.56463,13.72317 8.84766,14.40544 7.26852,17.52156 -0.88603,1.74844 -1.05582,5.04981 -0.48034,9.34005 l 0.8901,6.63573 7.8226,-0.35443 c 4.30241,-0.19495 9.39392,-0.97189 11.31442,-1.72656 3.06062,-1.20267 3.7553,-1.04673 5.62539,1.26272 1.17345,1.44916 2.49392,4.76784 2.93437,7.37485 0.47311,2.80033 2.25811,6.26492 4.362,8.46643 4.32095,4.52147 6.358,3.82953 12.23025,-4.15434 4.49174,-6.10691 7.07529,-6.69878 10.75708,-2.46434 3.12669,3.59601 3.90765,3.21691 6.8531,-3.32669 1.25707,-2.7927 3.98714,-7.18826 6.06683,-9.76789 2.0797,-2.57965 3.78126,-5.15854 3.78126,-5.73087 0,-0.57233 1.53647,-1.0406 3.41437,-1.0406 2.4823,0 5.08663,1.65477 9.54008,6.0617 l 6.12569,6.06168 3.73139,-4.52684 c 2.05227,-2.48976 3.7314,-4.94606 3.7314,-5.45843 0,-1.9582 5.39922,-0.8137 8.09097,1.71506 3.62214,3.40282 5.09182,1.92506 8.03171,-8.07591 1.17038,-3.98144 2.69144,-8.86775 3.38012,-10.85847 0.68869,-1.99072 1.52459,-4.8028 1.85756,-6.24908 0.75822,-3.29345 3.17339,-3.68184 29.31252,-4.71392 10.94896,-0.43231 20.58586,-1.33077 21.41532,-1.99659 0.82947,-0.66583 1.50813,-3.27414 1.50813,-5.79628 0,-3.22916 0.98148,-5.7682 3.31786,-8.58311 9.46939,-11.40891 9.15023,-11.30682 16.38447,-5.24061 2.76697,2.32022 7.38965,6.12068 10.27261,8.44548 l 5.24178,4.22691 13.61283,0 c 10.47118,0 13.95069,-0.40709 15.07674,-1.7639 1.02709,-1.23757 1.4283,-7.62783 1.34458,-21.41533 -0.0656,-10.80828 0.3511,-20.37354 0.92609,-21.25616 1.67,-2.56339 7.76181,-1.22142 9.39366,2.06935 0.78483,1.58268 2.15472,3.33887 3.04419,3.90264 2.622,1.66187 22.2463,1.29208 23.67542,-0.44613 0.68196,-0.82947 1.63427,-7.6407 2.11625,-15.13608 0.83539,-12.99143 0.75263,-13.7596 -1.77179,-16.44672 -2.06196,-2.19485 -2.56445,-3.98535 -2.27015,-8.089 l 0.37796,-5.27022 5.82459,-0.37155 c 3.20354,-0.20436 6.54847,0.2292 7.43321,0.96345 1.06809,0.88643 1.86253,0.92414 2.36433,0.1122 0.45635,-0.73838 6.35425,-1.12008 14.88701,-0.96346 l 14.13125,0.25936 0.36768,5.05978 c 0.20833,2.86689 -0.42443,6.59157 -1.46,8.59415 -1.00522,1.94389 -1.48739,3.87464 -1.07147,4.29057 0.41592,0.41591 10.59963,0.7562 22.63047,0.7562 l 21.87425,0 4.71246,-4.82598 4.71245,-4.82599 24.94385,0 c 21.6618,0 25.16172,-0.26085 26.59971,-1.98242 1.42179,-1.7022 4.38609,-14.06265 6.69888,-27.93281 1.05628,-6.33465 3.3333,-3.77677 4.16159,4.67489 2.32759,23.75012 3.61213,30.67293 6.08255,32.78094 2.92164,2.49304 15.35335,2.96042 17.6502,0.66358 0.89011,-0.89012 1.44779,-5.24995 1.44779,-11.31853 0,-9.82647 0.0186,-9.88489 4.14225,-13.03016 2.27822,-1.7377 4.5429,-3.15945 5.03261,-3.15945 0.4897,0 1.84012,-0.8595 3.00093,-1.91003 1.16081,-1.0505 3.91817,-2.96088 6.12749,-4.24527 9.71818,-5.64968 11.38127,-5.99363 27.28868,-5.64374 14.73199,0.32404 15.32269,0.43588 14.99472,2.83924 -0.18779,1.37605 0.10677,3.71363 0.65466,5.19462 l 0.99609,2.69269 4.63885,-3.6865 c 2.55137,-2.02756 5.31317,-3.68648 6.13735,-3.68648 0.82419,0 3.53656,2.48715 6.0275,5.52702 l 4.52898,5.52702 5.61139,-5.52702 c 3.08627,-3.03987 6.44524,-5.52702 7.46437,-5.52702 1.01913,0 3.36801,1.90023 5.21973,4.22273 1.85173,2.32251 3.91952,4.22274 4.5951,4.22274 0.67559,0 3.33167,-1.90023 5.9024,-4.22274 2.57073,-2.3225 5.32827,-4.22273 6.12785,-4.22273 0.79957,0 3.45788,1.95696 5.90735,4.3488 l 4.45358,4.3488 4.04277,-2.84068 c 2.22353,-1.56237 4.47694,-3.51934 5.00759,-4.3488 1.68377,-2.6319 5.06882,-1.64096 9.29725,2.72167 l 4.09969,4.22981 4.33171,-4.22981 c 5.22124,-5.0984 6.68089,-5.21725 11.20025,-0.91193 l 3.48282,3.31787 2.67551,-3.33606 c 2.2013,-2.74478 3.31841,-3.20749 6.30275,-2.61062 2.34473,0.46894 4.07334,0.15543 4.88891,-0.88668 0.69392,-0.88667 2.22004,-7.85574 3.39138,-15.48684 1.17135,-7.63109 2.32065,-14.55337 2.55401,-15.38283 0.55419,-1.96985 4.31637,-1.96985 3.92787,0 -0.1636,0.82946 0.3196,3.40835 1.0739,5.73086 0.7543,2.3225 2.2916,8.56613 3.4162,13.87471 1.1247,5.30859 2.5917,10.33954 3.2601,11.17988 0.8479,1.06606 2.9891,1.29259 7.0835,0.74944 l 5.8684,-0.77846 0,6.34714 c 0,4.32273 -0.8004,7.6422 -2.5095,10.4076 -2.1126,3.41825 -2.5095,6.00836 -2.5095,16.37574 0,10.3923 0.3336,12.55923 2.1368,13.87776 1.6446,1.20257 11.1033,1.56251 41.0607,1.56251 39.5326,0 46.7756,-0.71362 43.7875,-4.31417 -0.695,-0.83735 -1.0979,-4.41687 -0.8955,-7.95448 l 0.3681,-6.43206 5.3274,-0.38076 c 3.8298,-0.27371 6.2187,0.27809 8.4974,1.96281 3.1039,2.29486 3.2278,2.2965 5.9662,0.0791 3.3075,-2.67826 10.7265,-2.99082 14.0095,-0.5902 1.9583,1.43188 2.6743,1.4222 4.9469,-0.0668 1.7079,-1.11904 4.9594,-1.60943 9.1011,-1.3726 l 6.4439,0.36845 0.3583,6.15205 c 0.3239,5.5615 -0.064,6.65796 -4.0448,11.4223 -3.9821,4.76625 -4.325,5.73553 -3.5862,10.13566 0.9349,5.56744 1.2967,10.21144 1.6171,20.76532 0.1527,5.03386 0.8636,8.09172 2.1889,9.41705 1.8124,1.81249 2.1645,1.77293 4.6021,-0.51707 3.2171,-3.02236 6.1952,-3.17945 7.7458,-0.40859 1.031,1.84217 1.509,1.88385 4.3246,0.37698 2.8631,-1.53231 3.4033,-1.45633 5.6552,0.79559 2.1504,2.15047 2.9843,2.3046 6.1189,1.13114 3.4542,-1.29304 3.8779,-1.08434 8.7839,4.32738 5.0683,5.59089 5.1904,5.64635 7.2976,3.31786 3.0242,-3.34167 5.7645,-2.94821 9.315,1.33746 2.7542,3.32457 3.3304,3.54281 5.6042,2.12278 1.5285,-0.95456 2.5344,-2.83888 2.5344,-4.74751 0,-3.22466 5.1464,-9.52628 7.7799,-9.52628 1.9673,0 6.6981,6.65043 6.6981,9.41613 0,3.72004 3.6713,5.8946 13.6632,8.09306 7.4016,1.62849 9.6639,2.63293 10.4746,4.65055 0.8637,2.14964 3.446,13.08497 5.4511,23.0839 0.2661,1.32714 1.6325,3.12281 3.0362,3.99038 3.345,2.06731 5.9828,0.0128 5.9828,-4.66006 0,-2.46197 0.7433,-3.62127 2.7146,-4.2333 1.4931,-0.46356 4.072,-1.7586 5.7309,-2.87787 4.5457,-3.06699 17.4373,-2.56706 22.9234,0.88897 2.3225,1.46306 4.9094,2.66215 5.7486,2.66462 1.807,0.005 6.3054,6.9971 6.3118,9.81039 0,1.08 0.866,2.67858 1.919,3.55241 1.8652,1.54805 1.881,4.3847 0.066,11.84983 -1.0136,4.1685 0.146,5.19771 3.4308,3.04541 2.1853,-1.43191 3.45,-1.573 5.287,-0.58984 1.328,0.71074 4.2663,1.29225 6.5297,1.29225 4.1123,0 8.1085,2.91359 8.1085,5.91204 0,2.74782 2.9505,4.487 10.0109,5.90088 3.847,0.77039 7.7462,2.09239 8.6648,2.93776 0.9186,0.84537 5.0361,4.25165 9.1496,7.56951 4.1137,3.31787 9.5538,7.93272 12.0891,10.25523 l 4.6097,4.22274 0.6719,37.31135 c 0.3694,20.52125 0.9385,37.5781 1.2645,37.90412 0.326,0.32602 0.5934,13.93963 0.5941,30.25248 l 0,29.65972 -24.4329,-0.33447 c -13.4381,-0.18395 -25.0652,-0.55634 -25.8381,-0.82752 -0.7729,-0.27117 -2.1302,-1.82156 -3.0163,-3.44531 -3.4137,-6.25584 -14.3752,-22.25179 -16.674,-24.33208 -1.3269,-1.2009 -6.896,-3.32468 -12.3755,-4.7195 l -9.9615,-2.53603 -0.2952,-5.42924 c -1.4039,-25.82155 -14.5987,-45.75603 -37.1062,-56.05936 -2.6543,-1.21506 -5.1493,-2.70382 -5.5443,-3.30833 -0.3951,-0.60453 -0.7565,-7.17509 -0.8032,-14.60125 -0.098,-15.54788 -1.1672,-19.28263 -6.2798,-21.9264 -4.1618,-2.15215 -6.138,-1.50288 -10.8994,3.58101 -2.8417,3.03415 -3.0392,4.11937 -3.4127,18.75342 l -0.3963,15.5329 -6.3499,1.846 c -17.5339,5.09723 -31.9868,18.97251 -38.8765,37.32288 -1.3354,3.55692 -2.0493,11.37674 -2.4927,27.30461 -0.6323,22.71831 -1.0352,24.59409 -5.7309,26.68364 -1.3545,0.60269 -4.1867,2.14135 -6.2941,3.41921 -2.9468,1.78691 -6.4291,2.38168 -15.0812,2.57585 l -11.2496,0.25243 -0.3724,-6.43064 c -0.4636,-8.00832 -3.0968,-10.70425 -6.9445,-7.11015 -2.6451,2.47086 -8.3284,3.13576 -9.5741,1.12011 -1.1303,-1.82869 -6.1441,-1.44302 -7.8422,0.60325 -1.9192,2.31239 -4.1761,2.29124 -7.7844,-0.073 -2.4057,-1.57636 -3.2822,-1.62729 -5.3867,-0.31303 -1.9751,1.23345 -2.5134,2.79987 -2.5134,7.31198 l 0,5.74227 -27.7494,0 -27.7495,0 0,-5.03262 c 0,-6.87678 -2.6021,-9.6745 -7.432,-7.99078 -2.3117,0.80584 -4.5592,0.85327 -6.2352,0.13157 -2.9389,-1.26557 -6.8433,-0.76755 -6.8433,0.87287 0,0.59157 -1.131,1.68088 -2.5133,2.42069 -2.006,1.07357 -2.9817,0.92126 -4.8334,-0.75448 -3.0735,-2.78148 -3.6544,-1.93593 -3.93,5.72049 l -0.2318,6.442 -21.16394,0.32854 c -11.64015,0.18069 -21.53797,-0.0455 -21.99516,-0.50271 z"
       id="path3094"
       inkscape:connector-curvature="0" />
    <g
       style="font-style:normal;font-variant:normal;font-weight:bold;font-stretch:normal;font-size:263.46011353px;line-height:125%;font-family:Vollkorn;-inkscape-font-specification:'Vollkorn Bold';text-align:start;letter-spacing:0px;word-spacing:0px;writing-mode:lr-tb;text-anchor:start;fill:#000000;fill-opacity:1;stroke:none"
       id="text3096">
      <path
         d="m 231.63375,564.18827 q 13.96339,0 27.66331,2.89806 13.96339,2.6346 20.81335,6.84996 0,28.98062 1.84422,41.6267 -5.00574,2.89806 -13.43646,4.21536 -8.16727,1.3173 -16.07107,1.3173 -2.89806,-20.02296 -9.48457,-27.92677 -6.5865,-7.9038 -17.38836,-7.9038 -8.69419,0 -14.22685,3.9519 -5.2692,3.9519 -5.2692,11.85571 0,6.84996 4.21536,12.11916 4.47882,5.00574 11.06533,8.69418 6.5865,3.68845 18.4422,8.95765 16.59799,7.37688 27.13639,13.96338 10.80187,6.58651 18.44221,17.91529 7.64035,11.06533 7.64035,27.66331 0,26.08256 -19.23259,41.36324 -19.23259,15.28069 -54.00933,15.28069 -16.33452,0 -29.24407,-3.42498 -12.90954,-3.68844 -25.81909,-11.06533 3.42498,-17.12491 3.42498,-44.78822 12.11917,-3.16152 31.61522,-3.16152 1.05384,16.33453 3.42498,25.02871 2.6346,8.43073 7.37688,12.11917 5.00574,3.68844 14.22685,3.68844 12.11916,0 18.17874,-5.00574 6.32305,-5.26921 6.32305,-12.64609 0,-8.43072 -7.11343,-13.69992 -7.11342,-5.53267 -22.13065,-12.90955 -16.07106,-7.64034 -26.34601,-14.49031 -10.27494,-6.84996 -17.91528,-18.96912 -7.37689,-12.11917 -7.37689,-30.03446 0,-27.13639 17.38837,-40.30939 17.38837,-13.17301 45.84206,-13.17301 z"
         style="font-style:normal;font-variant:normal;font-weight:bold;font-stretch:normal;font-size:263.46011353px;line-height:125%;font-family:Vollkorn;-inkscape-font-specification:'Vollkorn Bold';text-align:start;letter-spacing:-5.48875237px;writing-mode:lr-tb;text-anchor:start"
         id="path4287" />
      <path
         d="m 444.06767,717.2586 q 0.52692,2.37114 0.52692,6.84996 0,7.9038 -3.42498,13.96338 -25.55563,0.52692 -47.42282,8.95765 -5.53266,-2.10768 -7.9038,-5.79612 -2.10768,-3.68845 -2.10768,-9.22111 0,-6.5865 1.84422,-13.173 -5.53266,12.11916 -12.90955,17.91528 -13.173,9.74803 -31.08829,9.74803 -42.15362,0 -42.15362,-31.61522 0,-16.59798 13.17301,-26.08255 13.173,-9.48456 28.98061,-13.43646 16.07107,-3.9519 37.6748,-6.84997 0,-8.95764 -1.31731,-14.22684 -1.3173,-5.2692 -4.74228,-8.95765 -2.37114,-2.6346 -6.05958,-3.9519 -3.68844,-1.58076 -7.37688,-1.58076 -8.43073,0 -12.90955,7.37689 -4.47882,7.37688 -6.05958,21.34026 -10.53841,0 -16.86145,-0.52692 -6.05958,-0.79038 -11.8557,-2.89806 0.52692,-6.84996 0.52692,-10.80186 0,-10.27495 -2.37114,-23.18449 25.29217,-9.48457 56.64392,-9.48457 20.81335,0 32.40559,3.16153 11.59225,2.89806 17.91529,10.01148 5.79612,6.05958 8.95765,15.54415 3.16152,9.48456 3.16152,26.87293 l 0,17.38837 q 0,10.01148 1.05384,14.4903 1.05384,4.47882 3.9519,6.32304 3.16152,1.58077 9.74802,1.84423 z m -64.81118,-31.87868 q -16.59799,3.16152 -23.97488,8.43073 -7.11342,5.2692 -7.11342,12.90954 0,11.06533 10.01149,11.06533 8.16726,0 14.4903,-7.37689 6.58651,-7.64034 6.58651,-20.54989 l 0,-4.47882 z"
         style="font-style:normal;font-variant:normal;font-weight:bold;font-stretch:normal;font-size:263.46011353px;line-height:125%;font-family:Vollkorn;-inkscape-font-specification:'Vollkorn Bold';text-align:start;letter-spacing:-5.48875237px;writing-mode:lr-tb;text-anchor:start"
         id="path4289" />
      <path
         d="m 467.51838,600.01884 q -0.52692,-7.64034 -4.74228,-11.06532 -3.95191,-3.68844 -14.75377,-4.74228 0,-13.17301 3.42498,-19.75951 18.44221,0 34.24982,-2.6346 15.8076,-2.6346 22.65757,-6.05958 9.2211,4.21536 9.2211,16.86144 l 0,129.35892 q 0,8.95764 1.3173,13.69992 1.58076,4.74229 5.2692,6.84997 3.68844,1.84422 10.80187,2.37114 2.10768,6.5865 2.10768,20.54989 -9.74803,-0.79038 -44.52476,-0.79038 -35.0402,0 -44.52476,0.79038 0,-14.22685 2.37114,-20.54989 7.11342,-0.52692 10.53841,-2.37114 3.68844,-2.10768 5.00574,-6.58651 1.58076,-4.74228 1.58076,-13.96338 l 0,-101.95907 z"
         style="font-style:normal;font-variant:normal;font-weight:bold;font-stretch:normal;font-size:263.46011353px;line-height:125%;font-family:Vollkorn;-inkscape-font-specification:'Vollkorn Bold';text-align:start;letter-spacing:-5.48875237px;writing-mode:lr-tb;text-anchor:start"
         id="path4291" />
      <path
         d="m 666.1865,697.23563 q 0,28.98061 2.10769,41.62669 -2.89807,6.32305 -12.38263,6.32305 -14.49031,0 -23.71141,-0.26346 l -29.24407,-0.26346 q -30.82484,0 -49.79396,0.52692 -2.37114,-3.68844 -3.95191,-8.95765 -1.58076,-5.53266 -1.58076,-10.5384 32.66906,-44.78822 55.06317,-81.9361 l -4.47882,0 q -7.37689,0 -11.59225,2.10768 -3.9519,2.10769 -6.5865,7.64035 -2.37114,5.2692 -4.21536,15.8076 -8.16727,0.52693 -15.80761,-0.52692 -7.64034,-1.05384 -12.38263,-3.68844 3.16153,-16.07106 3.16153,-41.89016 16.33452,0.79039 56.117,0.79039 34.24981,0 51.63818,-0.79039 4.21536,6.32305 4.21536,16.59799 -20.28643,37.14788 -53.4824,85.09762 l 10.27494,0 q 8.16727,0 12.11917,-2.89806 4.21536,-2.89806 6.05958,-9.22111 1.84422,-6.32304 2.6346,-18.4422 13.96339,-0.79038 25.81909,2.89806 z"
         style="font-style:normal;font-variant:normal;font-weight:bold;font-stretch:normal;font-size:263.46011353px;line-height:125%;font-family:Vollkorn;-inkscape-font-specification:'Vollkorn Bold';text-align:start;letter-spacing:-5.48875237px;writing-mode:lr-tb;text-anchor:start"
         id="path4293" />
      <path
         d="m 764.91681,666.93771 q 9.48456,0 15.8076,-9.2211 6.58651,-9.48456 6.58651,-29.50753 0,-18.44221 -7.37689,-29.771 -7.11342,-11.59224 -20.54988,-11.59224 -6.84997,0 -11.32879,1.84422 l 0,104.06674 q 0,17.12491 6.05958,24.23834 6.05959,6.84996 22.65757,7.9038 2.37114,6.5865 2.37114,20.54989 -15.01722,-0.79038 -50.05742,-0.79038 -35.04019,0 -53.21894,0.79038 0,-13.43647 1.84422,-20.54989 7.64034,-0.52692 11.06532,-2.89806 3.68845,-2.37114 5.00575,-8.16727 1.58076,-6.05958 1.58076,-18.4422 l 0,-80.09188 q 0,-12.38262 -1.3173,-17.91529 -1.05384,-5.53266 -4.47882,-7.64034 -3.42499,-2.37114 -11.32879,-3.42498 -2.37114,-9.48457 -2.37114,-20.54989 25.02871,0.79038 45.5786,0.79038 14.22684,0 22.13065,-0.26346 l 35.04019,-0.26346 q 30.56138,0 44.52476,16.07107 14.22685,15.8076 14.22685,41.36324 0,18.17874 -7.9038,32.93251 -7.64035,14.49031 -21.86719,23.18449 -13.96339,8.43072 -32.66906,8.43072 -11.32878,0 -18.17875,-2.6346 -0.52692,-4.21536 -0.52692,-6.32304 0,-7.37688 2.89806,-12.64609 2.10769,0.52692 5.79613,0.52692 z"
         style="letter-spacing:-10.97750473px"
         id="path4295" />
      <path
         d="m 992.5642,671.68 q 0,23.97487 -3.42498,38.46517 -3.42498,14.22685 -12.38262,22.92103 -15.01723,13.96339 -46.63244,13.96339 -26.34601,0 -41.6267,-6.5865 -15.28069,-6.84997 -21.86719,-20.81335 -6.32304,-14.22685 -6.32304,-37.93826 l 0,-65.07465 q 0,-12.38262 -1.58076,-18.17875 -1.3173,-6.05958 -4.74229,-8.43072 -3.42498,-2.37114 -11.06532,-3.68844 -2.10768,-8.95764 -2.10768,-20.54989 10.80186,0.79038 35.83057,0.79038 42.15362,0 54.79971,-0.79038 0,13.17301 -1.58076,20.54989 -7.64035,1.3173 -11.06533,3.68844 -3.16152,2.37114 -4.47882,8.16726 -1.3173,5.79613 -1.3173,18.44221 l 0,60.59583 q 0,24.50179 7.37688,36.62095 7.37689,11.85571 22.13065,11.85571 6.58651,0 12.64609,-2.6346 6.05958,-2.89806 10.01148,-8.69419 3.68844,-5.53266 5.53267,-15.8076 1.84422,-10.27495 1.84422,-29.50754 l 0,-47.42282 q 0,-13.173 -1.58076,-20.28642 -1.58077,-7.11343 -5.26921,-10.27495 -3.68844,-3.42498 -10.5384,-4.74228 -1.58076,-10.80187 -1.58076,-20.54989 10.80186,0.79038 29.50753,0.79038 18.44216,0 28.19026,-0.79038 0,12.90955 -2.1077,20.54989 -6.85,1.05384 -10.53841,4.21536 -3.42498,2.89806 -4.74228,9.48456 -1.31731,6.58651 -1.31731,19.23259 l 0,52.42857 z"
         style="letter-spacing:-16.4662571px"
         id="path4297" />
      <path
         d="m 1124.2325,696.97217 q 0,-7.90381 -1.5808,-11.85571 -1.3173,-4.21536 -5.2692,-5.79612 -3.6884,-1.58076 -11.5922,-2.10768 -1.5808,-8.43073 -1.5808,-20.28643 10.275,0.79038 36.0941,0.79038 26.346,0 37.4113,-0.52692 0,12.38262 -1.5808,20.02297 -6.5865,0.52692 -8.1672,3.42498 -1.5808,2.89806 -1.5808,12.11916 l 0,6.32305 q 0,10.01148 0.7904,15.28068 1.0538,5.26921 3.6884,12.11917 -12.646,9.2211 -30.2979,15.01723 -17.3883,5.53266 -36.6209,5.53266 -27.9268,0 -48.7401,-11.59225 -20.8134,-11.8557 -32.1422,-32.66905 -11.0653,-21.07681 -11.0653,-48.47666 0,-28.98061 12.6461,-49.26704 12.6461,-20.28643 33.7229,-30.56138 21.0768,-10.27494 46.6324,-10.27494 15.8076,0 31.8787,3.9519 16.3345,3.9519 28.9806,9.74803 -2.8981,16.59798 -2.8981,40.83631 -5.0057,2.37114 -11.3287,3.16152 -6.0596,0.52692 -14.7538,0.52692 -1.0539,-20.02296 -9.4846,-28.71715 -8.1672,-8.95764 -23.9748,-8.95764 -19.4961,0 -28.7172,18.17875 -9.2211,18.17874 -9.2211,45.05168 0,22.65757 5.0057,40.57285 5.2692,17.65183 14.7538,27.66332 9.4846,9.74802 22.1307,9.74802 5.7961,0 8.6941,-1.05384 4.2154,-1.58076 6.0596,-5.53266 2.1077,-3.95191 2.1077,-13.43647 l 0,-8.95764 z"
         style="letter-spacing:-16.4662571px"
         id="path4299" />
    </g>
    <g
       id="g3223"
       transform="matrix(1.7018747,0,0,1.7018747,954.36256,321.58602)">
      <path
         id="path1948"
         d="m 197.90954,137.59714 c -4.58366,0.0213 -8.96094,0.41222 -12.8125,1.09375 -11.34622,2.00451 -13.40625,6.2001 -13.40625,13.9375 l 0,10.21875 26.8125,0 0,3.40625 -26.8125,0 -10.0625,0 c -7.79246,0 -14.61576,4.68372 -16.75,13.59375 -2.46182,10.21297 -2.57102,16.58602 0,27.25 1.90593,7.93785 6.45754,13.59375 14.25,13.59375 l 9.21875,0 0,-12.25 c 0,-8.8499 7.65714,-16.65625 16.75,-16.65625 l 26.78125,0 c 7.45495,0 13.40625,-6.13816 13.40625,-13.625 l 0,-25.53125 c 0,-7.26634 -6.12998,-12.72478 -13.40625,-13.9375 -4.60599,-0.76672 -9.3851,-1.11505 -13.96875,-1.09375 z m -14.5,8.21875 c 2.76954,0 5.03125,2.29865 5.03125,5.125 -1e-5,2.81634 -2.26171,5.09375 -5.03125,5.09375 -2.77948,0 -5.03125,-2.27741 -5.03125,-5.09375 0,-2.82635 2.25177,-5.125 5.03125,-5.125 z"
         style="fill:url(#linearGradient3227);fill-opacity:1"
         inkscape:connector-curvature="0" />
      <path
         id="path1950"
         d="m 228.62829,166.25339 0,11.90625 c 0,9.23076 -7.8259,17 -16.75,17 l -26.78125,0 c -7.33584,0 -13.40625,6.27848 -13.40625,13.625 l 0,25.53125 c 0,7.26634 6.31858,11.54032 13.40625,13.625 8.48733,2.49561 16.62623,2.94663 26.78125,0 6.75015,-1.95439 13.40625,-5.88761 13.40625,-13.625 l 0,-10.21875 -26.78125,0 0,-3.40625 26.78125,0 13.40625,0 c 7.79246,0 10.69625,-5.43541 13.40624,-13.59375 2.79933,-8.39888 2.68022,-16.47577 0,-27.25 -1.92578,-7.75744 -5.60387,-13.59375 -13.40624,-13.59375 l -10.0625,0 z m -15.0625,64.65625 c 2.77947,0 5.03125,2.27742 5.03125,5.09375 -1e-5,2.82635 -2.25178,5.125 -5.03125,5.125 -2.76955,0 -5.03125,-2.29865 -5.03125,-5.125 0,-2.81633 2.26169,-5.09375 5.03125,-5.09375 z"
         style="fill:url(#linearGradient3229);fill-opacity:1"
         inkscape:connector-curvature="0" />
    </g>
  </g>
</svg>
